# xmcd
#
# Track frame offsets:
#	150
#	14554
#	32558
#	48917
#	66354
#	81368
#	98809
#	117785
#	135973
#	154561
#	172781
#	190312
#	207927
#	227281
#	248913
#
# Disc length: 3568 seconds
#
# Revision: 1
# Processed by: cddbd v1.5.2PL0 Copyright (c) Steve Scherf et al.
# Submitted via: audiograbber 1.83.01
#
DISCID=b60dee0f
DTITLE=COMPILATION - Cb60356
DYEAR=2006
DGENRE=
TTITLE0=John Anderson - If Her Lovin' Don't Kill Me
TTITLE1=Tracy Lawrence - Find Out Who Your Friends Are
TTITLE2=Sugarland - Want To
TTITLE3=Tim Mc Graw - My Little Girl
TTITLE4=Toby Keith - Crash Here Tonight
TTITLE5=Alan Jackson - Like Red On A Rose
TTITLE6=Carolyn Dawn Johnson - Love and Negotiation
TTITLE7=Randy Rogers Band - Kiss Me In The Dark
TTITLE8=Joe Nichols - I'll Wait For You
TTITLE9=Craig Morgan - Little Bit Of Life
TTITLE10=Sarah Buxton - Innocence
TTITLE11=Phil Vassar - The Woman In My Life
TTITLE12=Shooter Jennings - Gone To Carolina
TTITLE13=Sara Evans - You'll Always Be My Baby
TTITLE14=Kenny Chesney - You Save Me
EXTD=
EXTT0=
EXTT1=
EXTT2=
EXTT3=
EXTT4=
EXTT5=
EXTT6=
EXTT7=
EXTT8=
EXTT9=
EXTT10=
EXTT11=
EXTT12=
EXTT13=
EXTT14=
PLAYORDER=
